<?xml version="1.0" encoding="UTF-8" standalone="no"?>
<!DOCTYPE svg PUBLIC "-//W3C//DTD SVG 1.1//EN"
 "http://www.w3.org/Graphics/SVG/1.1/DTD/svg11.dtd">
<!-- Generated by graphviz version 16.1.0 (20260904.0139)
 -->
<!-- Title: AFD Pages: 1 -->
<svg width="935pt" height="917pt"
 viewBox="0.00 0.00 935.00 917.00" xmlns="http://www.w3.org/2000/svg" xmlns:xlink="http://www.w3.org/1999/xlink">
<g id="graph0" class="graph" transform="scale(1 1) rotate(0) translate(4 913.49)">
<title>AFD</title>
<polygon fill="white" stroke="none" points="-4,4 -4,-913.49 930.67,-913.49 930.67,4 -4,4"/>
<!-- inicio -->
<g id="node1" class="node">
<title>inicio</title>
<ellipse fill="#e6f3f0" stroke="black" cx="132.88" cy="-544.99" rx="1.8" ry="1.8"/>
</g>
<!-- I -->
<g id="node2" class="node">
<title>I</title>
<ellipse fill="#e6f3f0" stroke="black" cx="320.75" cy="-544.99" rx="18" ry="18"/>
<text xml:space="preserve" text-anchor="middle" x="320.75" y="-540.71" font-family="Arial" font-size="12.00">I</text>
</g>
<!-- inicio&#45;&gt;I -->
<g id="edge1" class="edge">
<title>inicio&#45;&gt;I</title>
<path fill="none" stroke="#55707a" d="M135.06,-544.99C146.78,-544.99 242.29,-544.99 291.17,-544.99"/>
<polygon fill="#55707a" stroke="#55707a" points="290.99,-548.49 300.99,-544.99 290.99,-541.49 290.99,-548.49"/>
</g>
<!-- I&#45;&gt;I -->
<g id="edge2" class="edge">
<title>I&#45;&gt;I</title>
<path fill="none" stroke="#55707a" d="M314.57,-562.26C312.7,-574.22 314.76,-585.99 320.75,-585.99 324.77,-585.99 327.02,-580.67 327.5,-573.56"/>
<polygon fill="#55707a" stroke="#55707a" points="331,-573.58 327,-563.77 324.01,-573.94 331,-573.58"/>
<text xml:space="preserve" text-anchor="middle" x="320.75" y="-587.94" font-family="Arial" font-size="9.00">blanco / BOM inicial</text>
</g>
<!-- A -->
<g id="node3" class="node">
<title>A</title>
<ellipse fill="#b6e4cc" stroke="black" cx="889.61" cy="-596.99" rx="33.06" ry="33.06"/>
<ellipse fill="none" stroke="black" cx="889.61" cy="-596.99" rx="37.06" ry="37.06"/>
<text xml:space="preserve" text-anchor="middle" x="889.61" y="-599.84" font-family="Arial" font-size="12.00">A</text>
<text xml:space="preserve" text-anchor="middle" x="889.61" y="-585.59" font-family="Arial" font-size="12.00">Emitir</text>
</g>
<!-- I&#45;&gt;A -->
<g id="edge7" class="edge">
<title>I&#45;&gt;A</title>
<path fill="none" stroke="#55707a" d="M327.5,-561.84C349.21,-622.3 432.79,-827.81 584.42,-887.99 691.72,-930.58 764.41,-909.68 834.56,-817.99 872.91,-767.85 884.45,-694.18 887.7,-645.9"/>
<polygon fill="#55707a" stroke="#55707a" points="891.19,-646.2 888.26,-636.01 884.2,-645.8 891.19,-646.2"/>
<text xml:space="preserve" text-anchor="middle" x="529.67" y="-880.9" font-family="Arial" font-size="9.00">símbolo / EOF</text>
</g>
<!-- E -->
<g id="node4" class="node">
<title>E</title>
<ellipse fill="#ffd5d5" stroke="black" cx="889.61" cy="-299.99" rx="29.88" ry="29.88"/>
<ellipse fill="none" stroke="black" cx="889.61" cy="-299.99" rx="33.88" ry="33.88"/>
<text xml:space="preserve" text-anchor="middle" x="889.61" y="-302.84" font-family="Arial" font-size="12.00">E</text>
<text xml:space="preserve" text-anchor="middle" x="889.61" y="-288.59" font-family="Arial" font-size="12.00">Error</text>
</g>
<!-- I&#45;&gt;E -->
<g id="edge8" class="edge">
<title>I&#45;&gt;E</title>
<path fill="none" stroke="#55707a" d="M324.53,-527.03C330.15,-491.19 343.43,-408.28 356.75,-338.99 375.63,-240.78 348.16,-201.95 404,-118.99 430.69,-79.34 450.5,-80.52 492.92,-58.49 627.98,11.66 737.4,35.17 834.56,-81.99 875.26,-131.07 886.02,-206.39 888.48,-254.41"/>
<polygon fill="#55707a" stroke="#55707a" points="884.98,-254.33 888.87,-264.19 891.97,-254.05 884.98,-254.33"/>
<text xml:space="preserve" text-anchor="middle" x="529.67" y="-60.44" font-family="Arial" font-size="9.00">otro</text>
</g>
<!-- PAL -->
<g id="node5" class="node">
<title>PAL</title>
<ellipse fill="#e6f3f0" stroke="black" cx="646.11" cy="-823.99" rx="24.01" ry="24.01"/>
<text xml:space="preserve" text-anchor="middle" x="646.11" y="-819.71" font-family="Arial" font-size="12.00">PAL</text>
</g>
<!-- I&#45;&gt;PAL -->
<g id="edge3" class="edge">
<title>I&#45;&gt;PAL</title>
<path fill="none" stroke="#55707a" d="M332.89,-558.5C348.2,-576.78 376.92,-610.07 404,-635.99 479.96,-708.68 498.44,-728.48 584.42,-788.99 593.87,-795.64 604.66,-802.17 614.5,-807.76"/>
<polygon fill="#55707a" stroke="#55707a" points="612.55,-810.68 622.99,-812.47 615.95,-804.56 612.55,-810.68"/>
<text xml:space="preserve" text-anchor="middle" x="439.46" y="-704.25" font-family="Arial" font-size="9.00">letra</text>
</g>
<!-- NUM -->
<g id="node6" class="node">
<title>NUM</title>
<ellipse fill="#e6f3f0" stroke="black" cx="439.46" cy="-442.99" rx="27.83" ry="27.83"/>
<text xml:space="preserve" text-anchor="middle" x="439.46" y="-438.71" font-family="Arial" font-size="12.00">NUM</text>
</g>
<!-- I&#45;&gt;NUM -->
<g id="edge4" class="edge">
<title>I&#45;&gt;NUM</title>
<path fill="none" stroke="#55707a" d="M334.69,-533.68C352.66,-517.98 385.67,-489.12 409.65,-468.17"/>
<polygon fill="#55707a" stroke="#55707a" points="411.66,-471.06 416.89,-461.84 407.05,-465.79 411.66,-471.06"/>
<text xml:space="preserve" text-anchor="middle" x="371.38" y="-513.95" font-family="Arial" font-size="9.00">dígito</text>
</g>
<!-- TEXTO -->
<g id="node7" class="node">
<title>TEXTO</title>
<ellipse fill="#e6f3f0" stroke="black" cx="439.46" cy="-165.99" rx="35.46" ry="35.46"/>
<text xml:space="preserve" text-anchor="middle" x="439.46" y="-161.71" font-family="Arial" font-size="12.00">TEXTO</text>
</g>
<!-- I&#45;&gt;TEXTO -->
<g id="edge5" class="edge">
<title>I&#45;&gt;TEXTO</title>
<path fill="none" stroke="#55707a" d="M327.07,-527.72C344.27,-471.86 398.79,-294.82 424.62,-210.92"/>
<polygon fill="#55707a" stroke="#55707a" points="427.95,-212 427.55,-201.41 421.26,-209.94 427.95,-212"/>
<text xml:space="preserve" text-anchor="middle" x="371.38" y="-424.35" font-family="Arial" font-size="9.00">comilla</text>
</g>
<!-- HASH -->
<g id="node8" class="node">
<title>HASH</title>
<ellipse fill="#e6f3f0" stroke="black" cx="439.46" cy="-591.99" rx="32.12" ry="32.12"/>
<text xml:space="preserve" text-anchor="middle" x="439.46" y="-587.71" font-family="Arial" font-size="12.00">HASH</text>
</g>
<!-- I&#45;&gt;HASH -->
<g id="edge6" class="edge">
<title>I&#45;&gt;HASH</title>
<path fill="none" stroke="#55707a" d="M337.98,-551.52C353.66,-557.84 378.03,-567.65 398.84,-576.03"/>
<polygon fill="#55707a" stroke="#55707a" points="397.35,-579.21 407.93,-579.7 399.96,-572.71 397.35,-579.21"/>
<text xml:space="preserve" text-anchor="middle" x="371.38" y="-571.85" font-family="Arial" font-size="9.00">#</text>
</g>
<!-- PAL&#45;&gt;A -->
<g id="edge10" class="edge">
<title>PAL&#45;&gt;A</title>
<path fill="none" stroke="#55707a" d="M670,-819.26C708.98,-810.07 788.46,-786.23 834.56,-736.99 858.39,-711.52 872.08,-674.39 879.72,-644.77"/>
<polygon fill="#55707a" stroke="#55707a" points="883.06,-645.84 882,-635.3 876.26,-644.2 883.06,-645.84"/>
<text xml:space="preserve" text-anchor="middle" x="780.18" y="-804.21" font-family="Arial" font-size="9.00">otro / EOF; válido *</text>
</g>
<!-- PAL&#45;&gt;E -->
<g id="edge11" class="edge">
<title>PAL&#45;&gt;E</title>
<path fill="none" stroke="#55707a" d="M669.16,-816.28C682.2,-810.64 698.04,-801.73 707.81,-788.99 726.7,-764.35 705.84,-745.27 725.81,-721.49 760.07,-680.67 802.71,-713.72 834.56,-670.99 834.71,-670.78 867.73,-443.65 882.08,-344.92"/>
<polygon fill="#55707a" stroke="#55707a" points="885.54,-345.44 883.52,-335.04 878.62,-344.44 885.54,-345.44"/>
<text xml:space="preserve" text-anchor="middle" x="780.18" y="-723.44" font-family="Arial" font-size="9.00">otro / EOF; inválido *</text>
</g>
<!-- PAL&#45;&gt;PAL -->
<g id="edge9" class="edge">
<title>PAL&#45;&gt;PAL</title>
<path fill="none" stroke="#55707a" d="M628.16,-840.37C619.43,-855.16 625.41,-871 646.11,-871 661.79,-871 669.03,-861.9 667.81,-851.06"/>
<polygon fill="#55707a" stroke="#55707a" points="671.18,-850.07 664.56,-841.8 664.57,-852.39 671.18,-850.07"/>
<text xml:space="preserve" text-anchor="middle" x="646.11" y="-872.95" font-family="Arial" font-size="9.00">letra, dígito, &#45;, _</text>
</g>
<!-- NUM&#45;&gt;A -->
<g id="edge15" class="edge">
<title>NUM&#45;&gt;A</title>
<path fill="none" stroke="#55707a" d="M465.46,-453.75C493.99,-465.86 542.19,-485.84 584.42,-500.99 675.01,-533.48 782.8,-566.1 842.69,-583.7"/>
<polygon fill="#55707a" stroke="#55707a" points="841.62,-587.03 852.2,-586.49 843.58,-580.32 841.62,-587.03"/>
<text xml:space="preserve" text-anchor="middle" x="646.11" y="-543.32" font-family="Arial" font-size="9.00">otro / EOF *</text>
</g>
<!-- NUM&#45;&gt;NUM -->
<g id="edge12" class="edge">
<title>NUM&#45;&gt;NUM</title>
<path fill="none" stroke="#55707a" d="M427.18,-468.36C425.19,-481.71 429.29,-493.81 439.46,-493.81 446.61,-493.81 450.76,-487.83 451.9,-479.64"/>
<polygon fill="#55707a" stroke="#55707a" points="455.4,-479.82 451.76,-469.87 448.4,-479.92 455.4,-479.82"/>
<text xml:space="preserve" text-anchor="middle" x="439.46" y="-495.76" font-family="Arial" font-size="9.00">dígito</text>
</g>
<!-- HORA -->
<g id="node9" class="node">
<title>HORA</title>
<ellipse fill="#e6f3f0" stroke="black" cx="646.11" cy="-427.99" rx="32.6" ry="32.6"/>
<text xml:space="preserve" text-anchor="middle" x="646.11" y="-423.71" font-family="Arial" font-size="12.00">HORA</text>
</g>
<!-- NUM&#45;&gt;HORA -->
<g id="edge13" class="edge">
<title>NUM&#45;&gt;HORA</title>
<path fill="none" stroke="#55707a" d="M467.63,-441C501.88,-438.49 561.14,-434.14 601.68,-431.17"/>
<polygon fill="#55707a" stroke="#55707a" points="601.88,-434.67 611.59,-430.45 601.37,-427.69 601.88,-434.67"/>
<text xml:space="preserve" text-anchor="middle" x="529.67" y="-440.92" font-family="Arial" font-size="9.00">:</text>
</g>
<!-- MALNUM -->
<g id="node10" class="node">
<title>MALNUM</title>
<ellipse fill="#e6f3f0" stroke="black" cx="646.11" cy="-299.99" rx="43.57" ry="43.57"/>
<text xml:space="preserve" text-anchor="middle" x="646.11" y="-295.71" font-family="Arial" font-size="12.00">MALNUM</text>
</g>
<!-- NUM&#45;&gt;MALNUM -->
<g id="edge14" class="edge">
<title>NUM&#45;&gt;MALNUM</title>
<path fill="none" stroke="#55707a" d="M462.75,-427.41C495.69,-404.4 558.04,-360.83 600.58,-331.11"/>
<polygon fill="#55707a" stroke="#55707a" points="602.43,-334.08 608.63,-325.48 598.42,-328.34 602.43,-334.08"/>
<text xml:space="preserve" text-anchor="middle" x="529.67" y="-406.59" font-family="Arial" font-size="9.00">letra, &#45;, _</text>
</g>
<!-- TEXTO&#45;&gt;A -->
<g id="edge23" class="edge">
<title>TEXTO&#45;&gt;A</title>
<path fill="none" stroke="#55707a" d="M473.68,-176.43C480.04,-178.34 486.67,-180.28 492.92,-181.99 647.14,-224.31 737.6,-167.8 834.56,-294.99 849.73,-314.9 871.77,-468.44 882.41,-548.6"/>
<polygon fill="#55707a" stroke="#55707a" points="878.92,-548.92 883.7,-558.37 885.86,-548 878.92,-548.92"/>
<text xml:space="preserve" text-anchor="middle" x="646.11" y="-212.09" font-family="Arial" font-size="9.00">comilla de cierre</text>
</g>
<!-- TEXTO&#45;&gt;E -->
<g id="edge24" class="edge">
<title>TEXTO&#45;&gt;E</title>
<path fill="none" stroke="#55707a" d="M475.2,-165.31C560.39,-164.3 776.93,-165.84 834.56,-205.99 852.46,-218.46 865.23,-238.91 873.85,-257.55"/>
<polygon fill="#55707a" stroke="#55707a" points="870.56,-258.76 877.73,-266.56 876.99,-255.99 870.56,-258.76"/>
<text xml:space="preserve" text-anchor="middle" x="646.11" y="-175.81" font-family="Arial" font-size="9.00">CR / LF / EOF *</text>
</g>
<!-- TEXTO&#45;&gt;TEXTO -->
<g id="edge21" class="edge">
<title>TEXTO&#45;&gt;TEXTO</title>
<path fill="none" stroke="#55707a" d="M426.77,-199.63C426.05,-213.12 430.28,-224.45 439.46,-224.45 445.84,-224.45 449.83,-218.97 451.42,-211.1"/>
<polygon fill="#55707a" stroke="#55707a" points="454.92,-211.34 452.05,-201.14 447.93,-210.9 454.92,-211.34"/>
<text xml:space="preserve" text-anchor="middle" x="439.46" y="-226.4" font-family="Arial" font-size="9.00">otro</text>
</g>
<!-- ESCAPE -->
<g id="node11" class="node">
<title>ESCAPE</title>
<ellipse fill="#e6f3f0" stroke="black" cx="646.11" cy="-77.99" rx="42.14" ry="42.14"/>
<text xml:space="preserve" text-anchor="middle" x="646.11" y="-73.71" font-family="Arial" font-size="12.00">ESCAPE</text>
</g>
<!-- TEXTO&#45;&gt;ESCAPE -->
<g id="edge22" class="edge">
<title>TEXTO&#45;&gt;ESCAPE</title>
<path fill="none" stroke="#55707a" d="M470.98,-149.3C478.11,-145.6 485.72,-141.79 492.92,-138.49 526.63,-123 565.51,-107.59 595.54,-96.19"/>
<polygon fill="#55707a" stroke="#55707a" points="596.63,-99.52 604.76,-92.72 594.16,-92.97 596.63,-99.52"/>
<text xml:space="preserve" text-anchor="middle" x="529.67" y="-140.44" font-family="Arial" font-size="9.00">barra inversa</text>
</g>
<!-- HASH&#45;&gt;E -->
<g id="edge28" class="edge">
<title>HASH&#45;&gt;E</title>
<path fill="none" stroke="#55707a" d="M471.81,-591.06C556.02,-587.89 784.16,-574.62 834.56,-522.99 858.96,-497.98 875.3,-402.54 883.17,-344.93"/>
<polygon fill="#55707a" stroke="#55707a" points="886.63,-345.48 884.48,-335.1 879.69,-344.55 886.63,-345.48"/>
<text xml:space="preserve" text-anchor="middle" x="646.11" y="-585.59" font-family="Arial" font-size="9.00">otro / EOF *</text>
</g>
<!-- COMENTARIO -->
<g id="node12" class="node">
<title>COMENTARIO</title>
<ellipse fill="#e6f3f0" stroke="black" cx="646.11" cy="-686.99" rx="61.69" ry="61.69"/>
<text xml:space="preserve" text-anchor="middle" x="646.11" y="-682.71" font-family="Arial" font-size="12.00">COMENTARIO</text>
</g>
<!-- HASH&#45;&gt;COMENTARIO -->
<g id="edge27" class="edge">
<title>HASH&#45;&gt;COMENTARIO</title>
<path fill="none" stroke="#55707a" d="M468.91,-605.2C497.33,-618.39 542,-639.13 579.26,-656.42"/>
<polygon fill="#55707a" stroke="#55707a" points="577.63,-659.52 588.18,-660.56 580.58,-653.18 577.63,-659.52"/>
<text xml:space="preserve" text-anchor="middle" x="529.67" y="-649.95" font-family="Arial" font-size="9.00">#</text>
</g>
<!-- HORA&#45;&gt;A -->
<g id="edge17" class="edge">
<title>HORA&#45;&gt;A</title>
<path fill="none" stroke="#55707a" d="M678.18,-434.83C718.19,-444.95 788.08,-467.2 834.56,-507.49 848.73,-519.78 860.27,-536.73 868.99,-552.58"/>
<polygon fill="#55707a" stroke="#55707a" points="865.89,-554.2 873.62,-561.44 872.09,-550.96 865.89,-554.2"/>
<text xml:space="preserve" text-anchor="middle" x="780.18" y="-509.44" font-family="Arial" font-size="9.00">otro / EOF; HH:MM válido *</text>
</g>
<!-- HORA&#45;&gt;E -->
<g id="edge18" class="edge">
<title>HORA&#45;&gt;E</title>
<path fill="none" stroke="#55707a" d="M675.29,-413.05C718.27,-390.27 800.35,-346.77 849.21,-320.87"/>
<polygon fill="#55707a" stroke="#55707a" points="850.58,-324.11 857.77,-316.33 847.3,-317.92 850.58,-324.11"/>
<text xml:space="preserve" text-anchor="middle" x="780.18" y="-384.88" font-family="Arial" font-size="9.00">otro / EOF; hora inválida *</text>
</g>
<!-- HORA&#45;&gt;HORA -->
<g id="edge16" class="edge">
<title>HORA&#45;&gt;HORA</title>
<path fill="none" stroke="#55707a" d="M625.64,-453.72C621.09,-469.11 627.92,-483.58 646.11,-483.58 659.76,-483.58 667.01,-475.44 667.86,-464.88"/>
<polygon fill="#55707a" stroke="#55707a" points="671.37,-464.76 666.75,-455.23 664.41,-465.56 671.37,-464.76"/>
<text xml:space="preserve" text-anchor="middle" x="646.11" y="-485.53" font-family="Arial" font-size="9.00">letra, dígito, :, &#45;, _</text>
</g>
<!-- MALNUM&#45;&gt;E -->
<g id="edge20" class="edge">
<title>MALNUM&#45;&gt;E</title>
<path fill="none" stroke="#55707a" d="M690.01,-299.99C733.34,-299.99 799.99,-299.99 843.94,-299.99"/>
<polygon fill="#55707a" stroke="#55707a" points="843.91,-303.49 853.91,-299.99 843.91,-296.49 843.91,-303.49"/>
<text xml:space="preserve" text-anchor="middle" x="780.18" y="-301.94" font-family="Arial" font-size="9.00">otro / EOF *</text>
</g>
<!-- MALNUM&#45;&gt;MALNUM -->
<g id="edge19" class="edge">
<title>MALNUM&#45;&gt;MALNUM</title>
<path fill="none" stroke="#55707a" d="M624.41,-338.3C623.18,-353.66 630.42,-366.56 646.11,-366.56 657.76,-366.56 664.74,-359.45 667.07,-349.51"/>
<polygon fill="#55707a" stroke="#55707a" points="670.55,-350.01 667.71,-339.81 663.56,-349.55 670.55,-350.01"/>
<text xml:space="preserve" text-anchor="middle" x="646.11" y="-368.51" font-family="Arial" font-size="9.00">letra, dígito, :, &#45;, _</text>
</g>
<!-- ESCAPE&#45;&gt;E -->
<g id="edge26" class="edge">
<title>ESCAPE&#45;&gt;E</title>
<path fill="none" stroke="#55707a" d="M688.44,-80.71C730.57,-85.65 795.17,-99.53 834.56,-138.49 865.76,-169.35 878.95,-218.72 884.53,-254.76"/>
<polygon fill="#55707a" stroke="#55707a" points="881.03,-255.03 885.87,-264.45 887.96,-254.07 881.03,-255.03"/>
<text xml:space="preserve" text-anchor="middle" x="780.18" y="-140.44" font-family="Arial" font-size="9.00">EOF *</text>
</g>
<!-- ESCAPE&#45;&gt;TEXTO -->
<g id="edge25" class="edge">
<title>ESCAPE&#45;&gt;TEXTO</title>
<path fill="none" stroke="#55707a" d="M603.9,-73.4C571.6,-71.79 526.63,-74.06 492.92,-93.49 480.17,-100.84 469.68,-112.67 461.51,-124.66"/>
<polygon fill="#55707a" stroke="#55707a" points="458.66,-122.63 456.28,-132.95 464.58,-126.36 458.66,-122.63"/>
<text xml:space="preserve" text-anchor="middle" x="529.67" y="-95.44" font-family="Arial" font-size="9.00">cualquier carácter</text>
</g>
<!-- COMENTARIO&#45;&gt;A -->
<g id="edge30" class="edge">
<title>COMENTARIO&#45;&gt;A</title>
<path fill="none" stroke="#55707a" d="M704.34,-665.66C747.05,-649.74 804.59,-628.3 843.94,-613.64"/>
<polygon fill="#55707a" stroke="#55707a" points="844.96,-616.99 853.11,-610.22 842.51,-610.43 844.96,-616.99"/>
<text xml:space="preserve" text-anchor="middle" x="780.18" y="-657.26" font-family="Arial" font-size="9.00">CR / LF / EOF *</text>
</g>
<!-- COMENTARIO&#45;&gt;COMENTARIO -->
<g id="edge29" class="edge">
<title>COMENTARIO&#45;&gt;COMENTARIO</title>
<path fill="none" stroke="#55707a" d="M624.5,-745.18C625.83,-760.29 633.03,-771.68 646.11,-771.68 655.71,-771.68 662.15,-765.54 665.42,-756.29"/>
<polygon fill="#55707a" stroke="#55707a" points="668.81,-757.16 667.41,-746.66 661.96,-755.74 668.81,-757.16"/>
<text xml:space="preserve" text-anchor="middle" x="646.11" y="-773.63" font-family="Arial" font-size="9.00">otro</text>
</g>
<!-- leyenda -->
<g id="node13" class="node">
<title>leyenda</title>
<polygon fill="#f3f6f8" stroke="black" points="259.75,-634.49 0,-634.49 0,-569.49 265.75,-569.49 265.75,-628.49 259.75,-634.49"/>
<polyline fill="none" stroke="black" points="259.75,-634.49 259.75,-628.49"/>
<polyline fill="none" stroke="black" points="265.75,-628.49 259.75,-628.49"/>
<text xml:space="preserve" text-anchor="middle" x="132.88" y="-619.09" font-family="Arial" font-size="12.00">* No consume delimitador.</text>
<text xml:space="preserve" text-anchor="middle" x="132.88" y="-604.84" font-family="Arial" font-size="12.00">A/E son salidas, no estados en el bucle.</text>
<text xml:space="preserve" text-anchor="middle" x="132.88" y="-590.59" font-family="Arial" font-size="12.00">La próxima llamada empieza en I.</text>
<text xml:space="preserve" text-anchor="middle" x="132.88" y="-576.34" font-family="Arial" font-size="12.00">Tras la forma se aplica clasificación contextual.</text>
</g>
</g>
</svg>
